HIERARCHY
ROOT root
{
	OFFSET 0.000000 0.000000 0.000000
	CHANNELS 6 Xposition Yposition Zposition Zrotation Yrotation Xrotation
	JOINT lhip
	{
		OFFSET 0.058581 -0.082280 -0.017664
		CHANNELS 3 Zrotation Yrotation Xrotation
		JOINT lknee
		{
			OFFSET 0.043451 -0.386469 0.008037
			CHANNELS 3 Zrotation Yrotation Xrotation
			JOINT lankle
			{
				OFFSET -0.014790 -0.426874 -0.037428
				CHANNELS 3 Zrotation Yrotation Xrotation
				JOINT ltoe
				{
					OFFSET 0.041054 -0.060286 0.122042
					CHANNELS 3 Zrotation Yrotation Xrotation
					End Site
					{
						OFFSET 0.000000 0.000000 0.000000
					}
				}
			}
		}
	}
	JOINT rhip
	{
		OFFSET -0.060310 -0.090513 -0.013543
		CHANNELS 3 Zrotation Yrotation Xrotation
		JOINT rknee
		{
			OFFSET -0.043257 -0.383688 -0.004843
			CHANNELS 3 Zrotation Yrotation Xrotation
			JOINT rankle
			{
				OFFSET 0.019056 -0.420046 -0.034562
				CHANNELS 3 Zrotation Yrotation Xrotation
				JOINT rtoe
				{
					OFFSET -0.034840 -0.062106 0.130323
					CHANNELS 3 Zrotation Yrotation Xrotation
					End Site
					{
						OFFSET 0.000000 0.000000 0.000000
					}
				}
			}
		}
	}
	JOINT lowerback
	{
		OFFSET 0.004439 0.124404 -0.038385
		CHANNELS 3 Zrotation Yrotation Xrotation
		JOINT upperback
		{
			OFFSET 0.004488 0.137956 0.026820
			CHANNELS 3 Zrotation Yrotation Xrotation
			JOINT chest
			{
				OFFSET -0.002265 0.056032 0.002855
				CHANNELS 3 Zrotation Yrotation Xrotation
				JOINT lowerneck
				{
					OFFSET -0.013390 0.211636 -0.033468
					CHANNELS 3 Zrotation Yrotation Xrotation
					JOINT upperneck
					{
						OFFSET 0.010113 0.088937 0.050410
						CHANNELS 3 Zrotation Yrotation Xrotation
						End Site
						{
							OFFSET 0.000000 0.000000 0.000000
						}
					}
				}
				JOINT lclavicle
				{
					OFFSET 0.071702 0.114000 -0.018898
					CHANNELS 3 Zrotation Yrotation Xrotation
					JOINT lshoulder
					{
						OFFSET 0.122921 0.045205 -0.019046
						CHANNELS 3 Zrotation Yrotation Xrotation
						JOINT lelbow
						{
							OFFSET 0.255332 -0.015649 -0.022946
							CHANNELS 3 Zrotation Yrotation Xrotation
							JOINT lwrist
							{
								OFFSET 0.265709 0.012698 -0.007375
								CHANNELS 3 Zrotation Yrotation Xrotation
								End Site
								{
									OFFSET 0.000000 0.000000 0.000000
								}
							}
						}
					}
				}
				JOINT rclavicle
				{
					OFFSET -0.082954 0.112472 -0.023707
					CHANNELS 3 Zrotation Yrotation Xrotation
					JOINT rshoulder
					{
						OFFSET -0.113228 0.046853 -0.008472
						CHANNELS 3 Zrotation Yrotation Xrotation
						JOINT relbow
						{
							OFFSET -0.260127 -0.014369 -0.031269
							CHANNELS 3 Zrotation Yrotation Xrotation
							JOINT rwrist
							{
								OFFSET -0.269108 0.006794 -0.006027
								CHANNELS 3 Zrotation Yrotation Xrotation
								End Site
								{
									OFFSET 0.000000 0.000000 0.000000
								}
							}
						}
					}
				}
			}
		}
	}
}
MOTION
Frames: 11
Frame Time: 0.033333
0.023177 0.190530 1.012925 179.785016 1.032447 89.952883 3.926369 3.871935 -3.069618 0.865262 -3.044862 4.565765 0.107586 11.456688 -6.762703 0.000000 -0.000000 0.000000 -2.244378 -2.290973 -6.379156 0.565796 1.394374 11.495270 3.493984 -7.395311 -6.529642 0.000000 -0.000000 0.000000 -1.537194 1.529924 0.335902 3.562994 -5.713909 6.780241 1.867819 2.257404 -19.496742 -3.108995 1.147045 -3.044274 4.033128 5.459689 6.352653 -20.841257 -30.214670 4.970793 -37.713570 -24.759530 21.358575 -8.257910 -52.034994 32.080475 -19.289656 -4.814590 15.144224 21.643878 30.325167 7.985779 30.826788 22.969665 14.501744 19.688155 54.788421 39.479460 20.775606 4.629877 13.132554 
0.023825 0.191004 1.012764 -179.962846 0.994920 89.998170 3.916739 3.815461 -2.999474 0.903549 -3.013623 4.314728 0.050683 11.272210 -6.660357 0.000000 -0.000000 0.000000 -2.271628 -2.238086 -6.402353 0.549721 1.152183 11.584514 3.542388 -7.435934 -6.589672 0.000000 -0.000000 0.000000 -1.725237 1.479457 0.191956 3.615962 -5.701967 6.947362 1.899210 2.301155 -19.360852 -3.086870 1.204757 -3.006258 3.890137 5.337273 6.158368 -20.708199 -29.404129 4.527937 -37.038561 -24.437521 20.712791 -7.708840 -54.425991 30.320929 -19.924787 -5.166342 13.750107 21.517838 29.926164 7.690156 30.011972 22.691382 13.987075 19.469244 57.093875 37.947253 21.130978 5.317736 12.164864 
0.024310 0.191484 1.012154 -179.554730 0.968697 89.984269 3.894714 3.680092 -2.955209 0.969107 -2.999472 4.175376 -0.214560 10.910881 -6.627952 0.000000 -0.000000 0.000000 -2.294840 -2.090951 -6.325164 0.455292 0.656183 11.649666 3.474549 -7.384535 -6.697938 0.000000 -0.000000 0.000000 -1.823102 1.456468 -0.073544 3.635682 -5.688520 7.578986 1.904628 2.362294 -19.316252 -3.258117 1.282464 -2.914578 3.786718 4.972541 5.684356 -20.689500 -28.576427 4.162263 -36.378285 -23.923519 19.785418 -5.612892 -56.817047 26.436204 -21.432130 -7.433397 11.099074 21.360838 29.465492 7.229916 28.766952 22.057200 13.100166 19.455953 59.724505 37.023221 21.763431 6.769160 11.645073 
0.024703 0.192297 1.011470 -179.177758 0.903545 90.181797 3.842072 3.380947 -3.163502 1.051559 -2.570871 4.185563 -0.419480 10.345864 -6.626863 0.000000 -0.000000 0.000000 -2.382633 -2.032153 -6.399715 0.390712 0.020268 11.604699 3.455420 -7.125310 -6.778505 0.000000 -0.000000 0.000000 -1.761137 1.288494 0.495866 3.500476 -5.563494 5.954186 1.867023 2.531914 -18.576675 -3.352372 1.501411 -2.604531 3.719926 4.600066 5.663870 -20.006112 -26.734302 3.010625 -37.500747 -23.187123 19.961720 -1.208266 -58.742846 18.848747 -23.385877 -11.052279 5.612603 21.167686 28.193611 6.397686 28.563143 21.445619 12.906268 18.842549 62.429036 34.513871 23.382083 8.722594 10.150752 
0.024685 0.193317 1.010828 -178.950583 0.904838 90.468079 3.852526 2.983410 -3.397359 1.130061 -2.015182 4.130310 -0.629052 9.998289 -6.643391 0.000000 -0.000000 0.000000 -2.446796 -1.973156 -6.520615 0.376798 -0.608198 11.442614 3.434856 -6.804819 -6.729882 0.000000 -0.000000 0.000000 -1.791393 1.544196 0.238788 3.580378 -5.286592 5.620845 1.816106 2.530350 -18.144459 -3.809503 1.342177 -2.262307 3.731032 4.571939 5.437075 -19.835035 -25.046085 2.268961 -38.147352 -22.297515 19.550675 3.771516 -60.127066 9.041213 -24.232611 -15.343182 -1.866944 20.757867 26.715840 5.483420 27.992425 20.732602 12.150305 19.436652 64.984005 33.106980 24.588665 10.808189 9.483142 
0.024761 0.194214 1.010335 -178.684230 0.815104 90.575242 3.752856 2.726488 -3.380134 1.210198 -1.744452 3.928486 -0.761042 9.703679 -6.558576 0.000000 -0.000000 0.000000 -2.592534 -1.938626 -6.419526 0.367357 -1.100642 11.254974 3.424556 -6.572783 -6.761886 0.000000 -0.000000 0.000000 -1.859202 1.735394 0.190776 3.486911 -5.028520 5.328410 1.776495 2.561870 -17.672456 -4.207555 1.134181 -1.750371 3.750701 4.766205 4.893733 -19.970697 -23.227339 1.577036 -38.471222 -21.072524 19.133973 8.956858 -61.715700 -0.356537 -23.739458 -18.280365 -8.093052 20.527947 25.506397 4.773418 26.932954 19.946779 11.540303 19.619642 67.651498 31.306743 26.361267 12.600614 8.029482 
0.024842 0.194873 1.009708 -178.361075 0.742198 90.633032 3.671095 2.566835 -3.343182 1.280210 -1.696904 3.799697 -0.974928 9.449201 -6.549347 0.000000 -0.000000 0.000000 -2.648816 -1.784856 -6.355792 0.271172 -1.472253 11.237998 3.352284 -6.604945 -6.802346 0.000000 -0.000000 0.000000 -1.866844 1.752729 0.401075 3.360112 -4.729312 4.891884 1.642555 2.692577 -17.103309 -4.467736 0.960580 -1.487708 3.789785 4.751488 4.354972 -20.223042 -21.453933 0.888716 -37.803743 -20.086219 18.377826 12.649732 -63.235064 -6.323268 -22.728980 -22.554258 -13.082969 20.198430 24.261734 3.809880 25.701508 19.343482 10.831673 20.275651 70.232655 31.575830 27.260031 14.740068 6.973690 
0.024757 0.195409 1.009257 -177.776384 0.706186 90.683316 3.628065 2.264891 -3.398191 1.282246 -1.939615 3.718877 -1.022491 9.480640 -6.427274 0.000000 -0.000000 0.000000 -2.611286 -1.848262 -6.296437 0.197752 -1.575964 11.273913 3.344331 -7.030694 -6.923389 0.000000 -0.000000 0.000000 -1.917087 1.603728 0.583079 3.150201 -4.756536 4.356499 1.510045 2.919157 -16.393855 -4.875423 0.384252 -0.981272 4.279875 5.300012 3.841854 -19.857347 -20.235948 0.298662 -37.054933 -19.336466 17.629354 16.576292 -64.582586 -12.439831 -19.498003 -23.416384 -19.261584 19.518582 23.278861 3.081194 24.573949 19.245912 9.667417 21.689249 72.014913 32.386157 28.279845 16.141978 5.492346 
0.024734 0.196191 1.008912 -177.135763 0.696607 90.818003 3.631646 2.003768 -3.550483 1.282078 -2.087977 3.639088 -1.181594 9.293827 -6.386022 0.000000 -0.000000 0.000000 -2.616872 -2.010225 -6.332805 0.160619 -1.974801 11.357336 3.381540 -7.170302 -7.010829 0.000000 -0.000000 0.000000 -2.038642 1.574221 0.550319 3.021586 -4.725371 3.914380 1.439480 3.085274 -15.833781 -5.022453 0.177395 -0.415347 4.428899 5.198830 3.825370 -19.021287 -19.393771 -0.318411 -37.076413 -19.381941 17.112554 19.790358 -63.791517 -18.245549 -16.493492 -24.938790 -23.318880 18.540313 22.515157 2.372587 23.674723 19.118480 8.850710 21.195575 73.760075 31.448059 26.100194 16.966978 5.046893 
0.024781 0.197013 1.008665 -176.641942 0.703815 90.934340 3.660865 1.858501 -3.586647 1.272834 -2.369379 3.376794 -1.116983 9.230960 -6.230221 0.000000 -0.000000 0.000000 -2.621137 -2.200013 -6.244533 0.172562 -2.119249 11.158756 3.466609 -7.293727 -7.002965 0.000000 -0.000000 0.000000 -2.291466 1.830594 0.425968 2.959614 -4.579976 3.854470 1.621113 2.982115 -15.568004 -5.354830 -0.113984 0.312785 4.504046 5.403721 3.589153 -18.394470 -19.438250 -0.611066 -37.016096 -18.784117 16.801184 24.570014 -63.120659 -25.484243 -11.754788 -23.852308 -26.970647 17.629363 22.322320 1.858229 22.333429 18.851108 7.736288 18.971249 75.801783 28.789870 24.127634 17.443197 4.255490 
0.024693 0.198194 1.008393 -176.160748 0.728263 90.979668 3.681169 1.760485 -3.448800 1.308255 -2.606608 2.993425 -1.244757 9.197510 -6.036157 0.000000 -0.000000 0.000000 -2.578996 -2.346291 -6.042092 0.130328 -2.212190 10.931438 3.638664 -7.519740 -7.028976 0.000000 -0.000000 0.000000 -2.358415 1.958266 0.183702 2.809486 -4.480010 4.067005 1.571858 3.041493 -15.439599 -5.437199 -0.198642 0.867551 4.630893 5.194874 3.831516 -17.955492 -19.344329 -0.990205 -36.532998 -18.827076 16.140254 27.369634 -61.900281 -28.049581 -10.087456 -22.802394 -26.855509 17.002702 22.212434 1.391818 21.133218 18.727593 6.449894 12.456317 77.676049 21.970499 23.701602 17.750907 2.988134 
